<?xml version="1.0" standalone="no"?>
<!DOCTYPE svg PUBLIC "-//W3C//DTD SVG 20010904//EN"
 "http://www.w3.org/TR/2001/REC-SVG-20010904/DTD/svg10.dtd">
<svg version="1.0" xmlns="http://www.w3.org/2000/svg"
 width="700.000000pt" height="700.000000pt" viewBox="0 0 700.000000 700.000000"
 preserveAspectRatio="xMidYMid meet">
<metadata>
Created by potrace 1.14, written by Peter Selinger 2001-2017
</metadata>
<g transform="translate(0.000000,700.000000) scale(0.100000,-0.100000)"
fill="#000000" stroke="none">
<path d="M1563 5942 c-12 -2 -34 -17 -48 -33 l-25 -31 0 -2366 c0 -2228 1
-2368 18 -2388 9 -12 26 -26 38 -32 15 -8 592 -11 1943 -11 l1922 0 32 29 32
28 0 800 c0 723 -2 802 -16 818 -14 16 -16 49 -17 215 l-1 195 531 530 c291
291 536 542 543 558 9 20 10 38 3 60 -14 43 -653 683 -695 695 -18 5 -40 4
-56 -3 -15 -6 -94 -78 -176 -159 l-148 -148 -1 122 c0 98 3 127 16 147 15 23
17 71 18 457 0 248 -3 442 -9 458 -5 15 -21 36 -35 45 -23 15 -167 17 -1936
17 -1051 0 -1921 -1 -1933 -3z"/>
</g>
</svg>
